<svg id="visual" viewBox="0 0 900 600" width="900" height="600" xmlns="http://www.w3.org/2000/svg" xmlns:xlink="http://www.w3.org/1999/xlink" version="1.1"><rect x="0" y="0" width="900" height="600" fill="#f1f1f1"></rect><defs><linearGradient id="grad1_0" x1="33.3%" y1="0%" x2="100%" y2="100%"><stop offset="20%" stop-color="#4facf7" stop-opacity="1"></stop><stop offset="80%" stop-color="#4facf7" stop-opacity="1"></stop></linearGradient></defs><defs><linearGradient id="grad1_1" x1="33.3%" y1="0%" x2="100%" y2="100%"><stop offset="20%" stop-color="#4facf7" stop-opacity="1"></stop><stop offset="80%" stop-color="#adcef5" stop-opacity="1"></stop></linearGradient></defs><defs><linearGradient id="grad1_2" x1="33.3%" y1="0%" x2="100%" y2="100%"><stop offset="20%" stop-color="#f1f1f1" stop-opacity="1"></stop><stop offset="80%" stop-color="#adcef5" stop-opacity="1"></stop></linearGradient></defs><defs><linearGradient id="grad2_0" x1="0%" y1="0%" x2="66.7%" y2="100%"><stop offset="20%" stop-color="#4facf7" stop-opacity="1"></stop><stop offset="80%" stop-color="#4facf7" stop-opacity="1"></stop></linearGradient></defs><defs><linearGradient id="grad2_1" x1="0%" y1="0%" x2="66.7%" y2="100%"><stop offset="20%" stop-color="#adcef5" stop-opacity="1"></stop><stop offset="80%" stop-color="#4facf7" stop-opacity="1"></stop></linearGradient></defs><defs><linearGradient id="grad2_2" x1="0%" y1="0%" x2="66.7%" y2="100%"><stop offset="20%" stop-color="#adcef5" stop-opacity="1"></stop><stop offset="80%" stop-color="#f1f1f1" stop-opacity="1"></stop></linearGradient></defs><g transform="translate(900, 0)"><path d="M0 486.7C-27.6 385.7 -55.1 284.7 -79.7 245.4C-104.3 206.1 -126 228.4 -182.2 250.8C-238.5 273.1 -329.3 295.5 -382.7 278C-436 260.6 -451.8 203.4 -462.9 150.4C-474 97.5 -480.4 48.7 -486.7 0L0 0Z" fill="#d0dff3"></path><path d="M0 324.5C-18.4 257.1 -36.8 189.8 -53.2 163.6C-69.6 137.4 -84 152.3 -121.5 167.2C-159 182.1 -219.5 197 -255.1 185.3C-290.7 173.7 -301.2 135.6 -308.6 100.3C-316 65 -320.3 32.5 -324.5 0L0 0Z" fill="#85bdf6"></path><path d="M0 162.2C-9.2 128.6 -18.4 94.9 -26.6 81.8C-34.8 68.7 -42 76.1 -60.7 83.6C-79.5 91 -109.8 98.5 -127.6 92.7C-145.3 86.9 -150.6 67.8 -154.3 50.1C-158 32.5 -160.1 16.2 -162.2 0L0 0Z" fill="#4facf7"></path></g><g transform="translate(0, 600)"><path d="M0 -486.7C36.1 -413.7 72.1 -340.7 97.3 -299.6C122.5 -258.5 136.9 -249.4 186.3 -256.5C235.8 -263.6 320.4 -286.9 373.8 -271.6C427.1 -256.2 449.3 -202.1 462.9 -150.4C476.6 -98.7 481.7 -49.4 486.7 0L0 0Z" fill="#d0dff3"></path><path d="M0 -324.5C24 -275.8 48.1 -227.1 64.9 -199.7C81.7 -172.3 91.2 -166.2 124.2 -171C157.2 -175.7 213.6 -191.3 249.2 -181C284.8 -170.8 299.5 -134.8 308.6 -100.3C317.7 -65.8 321.1 -32.9 324.5 0L0 0Z" fill="#85bdf6"></path><path d="M0 -162.2C12 -137.9 24 -113.6 32.4 -99.9C40.8 -86.2 45.6 -83.1 62.1 -85.5C78.6 -87.9 106.8 -95.6 124.6 -90.5C142.4 -85.4 149.8 -67.4 154.3 -50.1C158.9 -32.9 160.6 -16.5 162.2 0L0 0Z" fill="#4facf7"></path></g></svg>