<svg id="visual" viewBox="0 0 900 600" width="900" height="600" xmlns="http://www.w3.org/2000/svg" xmlns:xlink="http://www.w3.org/1999/xlink" version="1.1"><rect x="0" y="0" width="900" height="600" fill="#f1f1f1"></rect><defs><linearGradient id="grad1_0" x1="33.3%" y1="0%" x2="100%" y2="100%"><stop offset="20%" stop-color="#4facf7" stop-opacity="1"></stop><stop offset="80%" stop-color="#4facf7" stop-opacity="1"></stop></linearGradient></defs><defs><linearGradient id="grad1_1" x1="33.3%" y1="0%" x2="100%" y2="100%"><stop offset="20%" stop-color="#4facf7" stop-opacity="1"></stop><stop offset="80%" stop-color="#93c2f6" stop-opacity="1"></stop></linearGradient></defs><defs><linearGradient id="grad1_2" x1="33.3%" y1="0%" x2="100%" y2="100%"><stop offset="20%" stop-color="#c5d9f4" stop-opacity="1"></stop><stop offset="80%" stop-color="#93c2f6" stop-opacity="1"></stop></linearGradient></defs><defs><linearGradient id="grad1_3" x1="33.3%" y1="0%" x2="100%" y2="100%"><stop offset="20%" stop-color="#c5d9f4" stop-opacity="1"></stop><stop offset="80%" stop-color="#f1f1f1" stop-opacity="1"></stop></linearGradient></defs><defs><linearGradient id="grad2_0" x1="0%" y1="0%" x2="66.7%" y2="100%"><stop offset="20%" stop-color="#4facf7" stop-opacity="1"></stop><stop offset="80%" stop-color="#4facf7" stop-opacity="1"></stop></linearGradient></defs><defs><linearGradient id="grad2_1" x1="0%" y1="0%" x2="66.7%" y2="100%"><stop offset="20%" stop-color="#93c2f6" stop-opacity="1"></stop><stop offset="80%" stop-color="#4facf7" stop-opacity="1"></stop></linearGradient></defs><defs><linearGradient id="grad2_2" x1="0%" y1="0%" x2="66.7%" y2="100%"><stop offset="20%" stop-color="#93c2f6" stop-opacity="1"></stop><stop offset="80%" stop-color="#c5d9f4" stop-opacity="1"></stop></linearGradient></defs><defs><linearGradient id="grad2_3" x1="0%" y1="0%" x2="66.7%" y2="100%"><stop offset="20%" stop-color="#f1f1f1" stop-opacity="1"></stop><stop offset="80%" stop-color="#c5d9f4" stop-opacity="1"></stop></linearGradient></defs><g transform="translate(900, 0)"><path d="M0 486.7C-39.3 442.5 -78.6 398.2 -125.8 387.1C-172.9 376 -227.9 398.1 -282.7 389.1C-337.6 380.2 -392.3 340.2 -393.8 286.1C-395.2 232 -343.4 163.8 -350 113.7C-356.6 63.7 -421.7 31.8 -486.7 0L0 0Z" fill="#dbe5f2"></path><path d="M0 365.1C-29.5 331.8 -59 298.6 -94.3 290.3C-129.7 282 -170.9 298.6 -212 291.9C-253.2 285.1 -294.3 255.2 -295.3 214.6C-296.4 174 -257.5 122.8 -262.5 85.3C-267.4 47.8 -316.3 23.9 -365.1 0L0 0Z" fill="#adcef5"></path><path d="M0 243.4C-19.7 221.2 -39.3 199.1 -62.9 193.5C-86.5 188 -113.9 199 -141.4 194.6C-168.8 190.1 -196.2 170.1 -196.9 143.1C-197.6 116 -171.7 81.9 -175 56.9C-178.3 31.8 -210.8 15.9 -243.4 0L0 0Z" fill="#75b7f6"></path><path d="M0 121.7C-9.8 110.6 -19.7 99.5 -31.4 96.8C-43.2 94 -57 99.5 -70.7 97.3C-84.4 95 -98.1 85.1 -98.4 71.5C-98.8 58 -85.8 40.9 -87.5 28.4C-89.1 15.9 -105.4 8 -121.7 0L0 0Z" fill="#4facf7"></path></g><g transform="translate(0, 600)"><path d="M0 -486.7C57.7 -492.6 115.5 -498.5 150.4 -462.9C185.4 -427.3 197.5 -350.2 224.5 -309C251.6 -267.9 293.5 -262.7 332.5 -241.6C371.5 -220.5 407.5 -183.5 432.7 -140.6C457.9 -97.7 472.3 -48.8 486.7 0L0 0Z" fill="#dbe5f2"></path><path d="M0 -365.1C43.3 -369.5 86.6 -373.9 112.8 -347.2C139 -320.5 148.1 -262.7 168.4 -231.8C188.7 -200.9 220.1 -197 249.4 -181.2C278.6 -165.4 305.6 -137.6 324.5 -105.5C343.5 -73.3 354.3 -36.6 365.1 0L0 0Z" fill="#adcef5"></path><path d="M0 -243.4C28.9 -246.3 57.7 -249.3 75.2 -231.5C92.7 -213.7 98.7 -175.1 112.3 -154.5C125.8 -133.9 146.8 -131.3 166.3 -120.8C185.7 -110.2 203.8 -91.8 216.4 -70.3C229 -48.8 236.2 -24.4 243.4 0L0 0Z" fill="#75b7f6"></path><path d="M0 -121.7C14.4 -123.2 28.9 -124.6 37.6 -115.7C46.3 -106.8 49.4 -87.6 56.1 -77.3C62.9 -67 73.4 -65.7 83.1 -60.4C92.9 -55.1 101.9 -45.9 108.2 -35.2C114.5 -24.4 118.1 -12.2 121.7 0L0 0Z" fill="#4facf7"></path></g></svg>